# xmcd CD database file
#
# Track frame offsets:
#	150
#	8335
#	18815
#	31212
#	44312
#	56845
#	67897
#	75365
#	82490
#	94737
#	102515
#	109000
#	121162
#
# Disc length: 1709 seconds
#
# Revision: 3
# Processed by: cddbd v1.5PL3 Copyright (c) Steve Scherf et al.
# Submitted via: CDex 1.51
#
DISCID=9406ab0d
DTITLE=Patti Page - In The Land Of Hi-Fi
DYEAR=1956
DGENRE=Jazz
TTITLE0=Nevertheless
TTITLE1=Out Of Nowwhere
TTITLE2=The Lady Is A Tramp
TTITLE3=The Thrill Is Gone
TTITLE4=A Foggy Day
TTITLE5=Mountain Greenery
TTITLE6=I've Got My Eyes On You
TTITLE7=My Kind Of Love
TTITLE8=I Didn't Know About You
TTITLE9=My Sin
TTITLE10=Taking A Chance On Love
TTITLE11=Love For Sale
TTITLE12=I've Got My Eyes On You (monaural version)
EXTD=YEAR: 1956
EXTT0=
EXTT1=
EXTT2=
EXTT3=
EXTT4=
EXTT5=
EXTT6=
EXTT7=
EXTT8=
EXTT9=
EXTT10=
EXTT11=
EXTT12=
PLAYORDER=
